<?xml version="1.0" encoding="utf-8"?>
<!-- Generator: Adobe Illustrator 18.1.1, SVG Export Plug-In . SVG Version: 6.00 Build 0)  -->
<svg version="1.1" id="Layer_1" xmlns="http://www.w3.org/2000/svg" xmlns:xlink="http://www.w3.org/1999/xlink" x="0px" y="0px"
	 viewBox="0 478.3 841.9 83.2" enable-background="new 0 478.3 841.9 83.2" xml:space="preserve">
<path fill="#F15B46" d="M841,503.3L841,503.3v-1.2v-0.7v-0.6V500l-0.4,0.4l-0.4-1.1l-1.2-1.2l-0.6-1.5l-0.6-0.3l-0.1,0.3l-0.4-0.6
	l-0.3-1.1l-0.4-0.6l-0.4-0.7l-0.7-0.4l-0.4-0.6l-0.8-0.1l-0.7-0.7l-0.3-0.8l-0.1-1.7l-0.4-0.3l-0.3-1.1v-1l-0.3-0.7l-0.6-0.7h-0.3
	l-0.4,0.3l-0.6-1.1l-0.1-1.1l-0.3-0.7v-0.6l-0.4-0.1V481l-0.4-0.3l-0.3,0.3l-0.1,0.4v0.8l-0.4,0.6v0.6l-0.1,0.8l-0.3,1v0.8l0.1,0.6
	l-0.3,0.6v1.2l-0.3,0.7l-0.1,0.6l-0.6,0.4l-1-0.4l-0.7-0.7l-0.7-0.1l-0.8-0.6l-0.6-0.3l-1.4-1l-0.7-0.3l0.6-1.8v-0.6l0.6-0.1
	l0.6-1.1l-0.4-0.6l-0.3,0.1l-0.4-0.4l-0.6,0.8l-0.4-0.3l-0.8-0.1l-1-0.3l-0.6-0.1l-0.6-0.4l-1.1-0.1l0.7,0.4l0.3,0.6l-0.3,0.3
	l-0.7,0.1l-0.8-0.1l-0.6,0.4l-0.3,0.4l-0.3,0.4l0.3,0.7l-0.7,0.3v0.3l-0.4,0.6l0.4,0.4v0.6l-0.4-0.1l-0.7-0.3l-0.4,0.3l-0.1,0.7
	l-0.1,0.1v-1.1l-0.6-0.1l-0.4-0.6l-0.4-0.3l-0.6,0.1l-0.3,0.6l-0.7,0.3l-0.4-0.3l-0.6,0.4l-0.4,1.1l-0.4,0.3l0.4,0.6l-0.1,0.6
	l-0.8,0.3l-0.4-0.1l-0.1,0.4l0.4,0.7l-0.1,0.7l-0.6-1l-0.3-0.6l-0.4,0.4l-0.4,0.6l0.1,0.7l0.3,0.7l-0.8,1l-0.3,1l-0.6,0.4l-0.6,0.1
	l-0.7,0.4l-0.7,0.1l-0.4,0.8l-0.7-0.3l-0.7,0.8l-0.7-0.1l-0.7,0.6l-0.4,0.7h-0.4l-0.4,0.8l-0.3,0.6l-0.6-0.4v0.7l-0.1,0.4l0.3,0.8
	l-0.1,0.8l0.1,0.6l0.6,0.8l0.6,0.3l-0.1,1l-0.7-0.4l0.1,0.6l-0.4-0.1l0.6,1l0.4,0.6l0.6,1.1l0.6,0.7l0.8,0.4v1.1l0.3,0.8l1.1,1.5
	v0.8l0.1,1l-0.4,0.3l0.3,0.7l0.6,0.3l0.8,0.4l1.9-0.4l1.1-0.7l0.4-0.4l0.8-0.4l0.8-0.1l0.4,0.4l0.7-0.4h0.4l0.7-0.4l0.1-0.8l0.1-0.3
	l1.4-1l1,0.1l1.8-0.8l0.4-0.4l1-0.3l1,0.1l0.4-0.1l0.6,0.3l0.6,0.4h0.7l0.7,0.1l0.6,1l0.4,0.1l0.1,0.4l0.7,1.2l0.8,0.4l0.1-0.4
	l0.3-0.6l0.4-0.4l0.7-0.3l-0.1-0.6l0.1-0.3l0.6-0.3l-0.1,1l-0.6,1.5l-0.3,0.6h1l0.1-1.1l0.3,0.4v0.8l-0.3,0.7h0.4l0.6-0.3l0.6,1
	l0.3,0.8l0.1,0.7l1.4,1.2h1.1l0.7,0.4l0.6,0.4l1-0.7l0.1-0.4l0.1,0.6h0.3l0.8,0.7l0.8-0.4l0.8-0.7l0.6-0.1l0.7,0.1l0.8-0.4l0.3-0.7
	v-0.3l0.1-1l0.4-1.1l0.3-1l0.3-0.4l0.3-0.7l0.7-1l0.4-0.3l0.4-0.7l0.4-1.2v-1.1l0.4-0.4l0.1-0.6l0.3-0.4L841,503.3L841,503.3z
	 M834.1,520.5l-0.7,0.3l-0.7,0.3l-0.7-0.4l-0.6-0.3h-0.7v0.7l0.6,0.8v1.1l0.4,0.8l0.4,0.6h0.7l0.1-0.6l0.4-0.3h0.4v-0.7l0.3-0.6
	v-1.4L834.1,520.5L834.1,520.5z"/>
<path fill="#004563" d="M3.8,481.1L2,501.8h2.6c1.2-4.8,1.2-13.4,10.4-13.4h6.5v52.9l-9.7,1.2v3.2h35.3v-3.2l-2.6-0.1
	c-6.8-1.1-7.1-0.6-7.1-5.8v-48.1h6.6c9.1,0,9.3,8.6,10.5,13.4h2.5l-1.8-20.6L3.8,481.1L3.8,481.1z M94.8,484.5l1.1,0.1
	c6.8,0.8,7.5,0.6,7.5,5.8v18.6H82.8v-23.3l8.6-1.2V481H58.6v3.5l2.1,0.1c6.8,0.7,7.9,0.6,7.9,5.8v50.8l-10,1.2v3.2h32.8v-3.2
	l-1.1-0.1c-6.8-0.8-7.5-0.6-7.5-5.8v-21.2h20.6v26l-8.6,1.2v3.2h32.8v-3.2l-1.2-0.1c-6.8-0.7-7.2-0.6-7.2-5.8v-50.7l8.6-1.2v-3.6H95
	L94.8,484.5L94.8,484.5z M164.7,539c-10.7,0-10.1-1-10.1-8.6v-15.2h11.2c3.3,0,7.3,0,7.2,8.6h2.5l1.8-21.9h-2.6
	c-0.6,3.6-1.2,7.3-7.5,7.3h-12.5v-21.9h15.1c7.9,0,9.1,4.8,9.3,9.7h2.5l1.4-15.8h-52.8v3.5l1.2,0.1c6.8,0.7,7.2,0.6,7.2,5.8v50.8
	l-8.6,1.2v3.2h52.4l1.7-18.3h-2.5C179.3,535.8,176.7,539,164.7,539L164.7,539z M259.8,537.6l-19-56.6h-13.6l-20.6,60.2l-8,1.2v3.2
	h23.1v-3.2c-6.1-0.7-8.4-1.4-6.9-6.1c0.3-1,1.7-5.4,3.3-9h22l4.8,14l-9.7,1.1v3.2h34.1v-3.2l-3-0.3
	C263.4,541.8,261.1,541.8,259.8,537.6L259.8,537.6z M220.3,520.1c4.2-12.2,9-26,9-26l8.6,26H220.3z M325.1,481.1h-24.4v3.5l1.2,0.1
	c6.8,0.7,7.2,0.6,7.2,5.8v29.9c0,10.4-0.6,19.1-14.1,19.1c-11.5,0-14-7.3-14-18.1v-35.7l8.6-1.2v-3.3h-32.8v3.5l1.9,0.1
	c6.8,0.7,7.9,0.6,7.9,5.8v31.7c0,14.8,5.3,24.4,26.3,24.4c22.3,0,22.3-15.9,22.3-24.4v-36.6l9.7-1.2L325.1,481.1L325.1,481.1z
	 M324.8,526L324.8,526L324.8,526z M358.1,507.6c-12-4.7-22.7-6.1-22.7-13c0-6.6,7.1-7.8,13.2-7.8c9.4,0,14.4,2.8,14.3,15h2.6
	c0,0,1.7-19.7,1.7-19.2c-4.8-1.2-11.4-2.9-17.9-2.9c-11.1,0-25.9,3.5-25.9,19.4c0,9.1,3.2,15.1,11.2,18.3c5,1.9,9.3,3.6,11.4,4.3
	c7.3,2.4,10.9,5.1,10.9,9.8c0,4.2-2.5,8.9-11.6,8.9c-6.2,0-10.4-1.9-12.2-2.6c-5-2.1-5.5-8-5.5-11.2l-2.6-0.3
	c-0.1,1.1-1.4,15.5-1.4,15.9c3.6,2.5,11.9,5.1,21.3,5.1c9,0,24.2-4.8,24.2-21C369.1,516.5,364.8,510.2,358.1,507.6L358.1,507.6z
	 M371.7,481.1l-1.8,20.6h2.6c1.2-4.8,1.2-13.4,10.4-13.4h6.8v52.9l-9.7,1.2v3.2h35.3v-3.2l-2.6-0.1c-6.8-1.1-7.1-0.6-7.1-5.8v-48.1
	h6.5c9.1,0,9.3,8.6,10.5,13.4h2.5l-1.8-20.6L371.7,481.1L371.7,481.1z M595.2,538.8c-10.7,0-10.7-0.7-10.7-8.3v-44.7l9.7-1.2v-3.5
	h-32.8v3.5l1.2,0.1c6.8,0.7,7.2,0.6,7.2,5.8v50.8l-7.3,1.2v3.2h47.9l1.9-21.9h-2.5C607.8,533.5,604.8,538.8,595.2,538.8L595.2,538.8
	z M486.6,538.5c-3.6-18.3-8.7-21.7-17.9-23.4c6.8-0.8,15.9-2.4,15.9-16.9c0-12.9-9.3-17.2-25.9-17.2h-32.5v3.5l1.2,0.1
	c6.8,0.7,7.2,0.6,7.2,5.8v50.8l-8.6,1.2v3.2h32.8v-3.2l-1.2-0.1c-6.8-0.7-7.2-0.6-7.2-5.8v-17.6h4.2c6,0,9.4,0.3,11.2,3.5
	c2.1,3.9,3.3,8.2,4.4,13.8c0.6,2.4,1.5,7.1,1.9,9.4h19.6v-3.2C488.2,541.8,487.3,542.2,486.6,538.5L486.6,538.5z M459.6,511.5h-9
	V487h8.9c4,0,11.4,1.5,11.4,11.8C470.9,507,467.1,511.5,459.6,511.5L459.6,511.5z M552.9,537.6l-19-56.6h-13.6L499,541.2l-5.8,1.2
	v3.2h18.3v-3.2c-3.6,0-7.1-0.6-5.7-4.7c0.3-0.8,2.1-5.5,4-10.4h23.4l4.7,14l-8.2,1.1v3.2h31.7v-3.2l-2.4-0.1
	C557.4,541.9,554.3,541.8,552.9,537.6L552.9,537.6z M512.3,520.1c4.7-12.2,10-27.6,10-27.6l8.7,27.6H512.3L512.3,520.1z
	 M612.7,484.5l1.2,0.1c6.8,0.7,7.2,0.6,7.2,5.8v50.8l-8.4,1.2v3.2h32.8v-3.2l-1.2-0.1c-6.8-0.7-7.2-0.6-7.2-5.8v-50.8l8.6-1.2V481
	h-32.8v3.5H612.7z M708.7,537.6l-19-56.6h-13.6l-20.9,60.2l-8.3,1.2v3.2h24.2v-3.2c-7.3-0.7-8.7-1.4-7.3-6.1c0.3-1,1.2-5.4,2.9-9h22
	l4.6,14l-10,1.1v3.2h34.1v-3.2l-2.9-0.3C712,541.8,710.1,541.8,708.7,537.6L708.7,537.6z M669.1,520.1c4.2-12.2,9-26,9-26l8.6,26
	H669.1L669.1,520.1z M761.3,481.1v3.5l1.9,0.1c6.8,0.7,7.9,0.6,7.9,5.8v33.2l-28.7-42.7h-24.9v3.5l2.8,0.1c6.8,1.1,6.8,0.6,6.8,5.8
	v50.8l-7.1,1.2v3.2h23.1v-3.2l-1.2-0.1c-6.8-0.7-7.2-0.6-7.2-5.8v-40.5l32.5,49.7h10.5v-59.9l8-1.2v-3.5L761.3,481.1L761.3,481.1z"
	/>
<g enable-background="new    ">
	<path fill="#004563" d="M560.3,549.7c-0.2,0.3-0.2,0.4-0.2,5.1c0,3.8,0,5.4,0,5.9h-0.8c-1.6-2.1-5.1-6.5-7-9v4.8
		c0,2.9,0,3.1,0.2,3.3c0.2,0.2,0.5,0.3,1.3,0.3v0.3c-0.5,0-1,0-1.7,0c-0.7,0-1.2,0-1.7,0v-0.3c0.5,0,0.9,0,1.1-0.3
		c0.2-0.3,0.2-0.4,0.2-5.1v-3.9c-0.8-1.1-1-1.3-1.3-1.3v-0.3c0.3,0,0.8,0,1.2,0c0.4,0,1,0,1.5,0c0.4,0.5,1.3,1.7,1.8,2.3l4.5,5.7
		V553c0-2.9,0-3.1-0.2-3.3c-0.2-0.2-0.5-0.3-1.3-0.3v-0.3c0.5,0,1,0,1.7,0s1.2,0,1.7,0v0.3C560.9,549.5,560.5,549.5,560.3,549.7z"/>
	<path fill="#004563" d="M571.7,560.4c-0.4,0-5.2,0-6,0c-0.8,0-2,0-2.5,0v-0.3c0.5,0,0.9,0,1.1-0.3c0.2-0.3,0.2-0.4,0.2-5.1
		s0-4.8-0.2-5c-0.2-0.2-0.6-0.2-1.1-0.3v-0.3c0.5,0,1.7,0,2.5,0c0.8,0,5.2,0,5.9,0c0,0.7,0,2.1,0.1,2.7h-0.4
		c-0.4-1.6-0.9-2.1-2.9-2.1c-0.8,0-1.3,0-1.7,0c0,1,0,3.3,0,4.5c0.3,0,0.7,0,1.4,0c1.7,0,1.9-0.3,2-1.4h0.4c0,0.9,0,2.6,0,3.6h-0.4
		c-0.1-1.5-0.6-1.7-2.3-1.7c-0.7,0-0.9,0-1.2,0v1.7c0,2.6,0,2.8,0.3,3c0.2,0.2,0.6,0.3,1.7,0.3c1.6,0,2.6-1,3.1-2.5h0.4
		C572,558,571.8,559.6,571.7,560.4z"/>
	<path fill="#004563" d="M588.5,550.9c-0.9,2.6-2.2,6.9-3.1,9.7h-0.9c-0.4-1.3-1.8-5.6-2.7-8.2c-1.1,2.9-2.4,6.2-3.2,8.2h-0.9
		c-0.5-2.1-1.7-6.7-2.7-9.9c-0.3-1.1-0.7-1.2-1.3-1.2v-0.3c0.5,0,1.4,0,2,0c0.8,0,2.1,0,2.8,0v0.3c-0.9,0-1.3,0.2-1.3,0.8
		c0,0.6,0.9,4,1.9,7.3c1.4-3.6,2.6-7.2,3-8.3h0.8c0.8,2.6,1.7,5.5,2.7,8.4c1.1-3.6,2-6.6,2-7.2c0-0.5-0.2-0.8-1.1-0.9v-0.3
		c0.5,0,1.1,0,1.7,0c0.5,0,1.3,0,1.6,0v0.3C589.2,549.5,588.9,549.7,588.5,550.9z"/>
	<path fill="#004563" d="M595,560.5c-1.1,0-2-0.4-2.6-0.4c-0.2,0-0.4,0.1-0.4,0.4h-0.3c0-0.9,0.1-2.5,0.1-3.3h0.4
		c0.2,1.1,1.1,2.8,2.9,2.8c1,0,2.2-0.8,2.2-2c0-2.4-5.6-1.8-5.6-5.7c0-1.8,1.3-3.4,3.2-3.4c0.8,0,1.9,0.4,2.4,0.4
		c0.2,0,0.3-0.2,0.4-0.4h0.3c0,0.9,0,2.2,0,3.1h-0.4c-0.3-1.7-1.3-2.6-2.6-2.6c-1.1,0-2.1,0.7-2.1,1.8c0,2.4,5.7,1.8,5.7,5.6
		C598.5,558.7,597.1,560.5,595,560.5z"/>
	<path fill="#004563" d="M605.1,555.8c-0.5,0-0.7,0-1-0.1v0.8c0,2.9,0,3.1,0.2,3.3c0.2,0.2,0.7,0.3,1.4,0.3v0.3c-0.5,0-2.1,0-2.8,0
		c-0.7,0-1.8,0-2.3,0v-0.3c0.5,0,0.9,0,1.1-0.3c0.2-0.3,0.2-0.4,0.2-5.1s0-4.8-0.2-5c-0.2-0.2-0.6-0.2-1.1-0.3v-0.3
		c0.5,0,1.7,0,2.4,0c0.8,0,1.8-0.1,2.7-0.1c2.5,0,4,1.2,4,3.2C609.7,553.8,608.3,555.8,605.1,555.8z M605,549.6c-0.4,0-0.6,0-0.9,0
		c0,1,0,3.9,0,5.6c0.2,0,0.3,0,0.7,0c1.7,0,2.6-1.1,2.6-3C607.4,550.7,606.8,549.6,605,549.6z"/>
	<path fill="#004563" d="M619.2,560.3c-0.8,0-2.1,0-2.7,0v-0.3c0.9,0,1.2-0.2,1.2-0.7c0-0.3-0.3-1.3-0.8-2.6h-3.4
		c-0.5,1.6-0.7,2.4-0.7,2.6c0,0.6,0.5,0.8,1.1,0.8v0.3c-0.3,0-1.1,0-1.8,0c-0.6,0-1.3,0-1.6,0v-0.3c0.8,0,1.2-0.2,1.6-1.2
		c0.7-1.6,2.7-7.1,3.6-9.8h0.9c0.8,2.5,2.7,7.5,3.5,9.8c0.4,1,0.6,1.2,1.4,1.2v0.3C621,560.4,620,560.3,619.2,560.3z M615.3,551.8
		c-0.7,1.8-1.2,3.2-1.5,4.3h3C616.4,554.9,615.8,553.3,615.3,551.8z"/>
	<path fill="#004563" d="M627.8,555.8c-0.5,0-0.7,0-1-0.1v0.8c0,2.9,0,3.1,0.2,3.3c0.2,0.2,0.7,0.3,1.4,0.3v0.3c-0.5,0-2.1,0-2.8,0
		c-0.7,0-1.8,0-2.3,0v-0.3c0.5,0,0.9,0,1.1-0.3c0.2-0.3,0.2-0.4,0.2-5.1s0-4.8-0.2-5c-0.2-0.2-0.6-0.2-1.1-0.3v-0.3
		c0.5,0,1.7,0,2.4,0c0.8,0,1.8-0.1,2.7-0.1c2.5,0,4,1.2,4,3.2C632.3,553.8,630.9,555.8,627.8,555.8z M627.6,549.6
		c-0.4,0-0.6,0-0.9,0c0,1,0,3.9,0,5.6c0.2,0,0.3,0,0.7,0c1.7,0,2.6-1.1,2.6-3C630,550.7,629.4,549.6,627.6,549.6z"/>
	<path fill="#004563" d="M642.4,560.4c-0.4,0-5.2,0-6,0c-0.8,0-2,0-2.5,0v-0.3c0.5,0,0.9,0,1.1-0.3c0.2-0.3,0.2-0.4,0.2-5.1
		s0-4.8-0.2-5c-0.2-0.2-0.6-0.2-1.1-0.3v-0.3c0.5,0,1.7,0,2.5,0c0.8,0,5.2,0,5.9,0c0,0.7,0,2.1,0.1,2.7H642
		c-0.4-1.6-0.9-2.1-2.9-2.1c-0.8,0-1.3,0-1.7,0c0,1,0,3.3,0,4.5c0.3,0,0.7,0,1.4,0c1.7,0,1.9-0.3,2-1.4h0.4c0,0.9,0,2.6,0,3.6h-0.4
		c-0.1-1.5-0.6-1.7-2.3-1.7c-0.7,0-0.9,0-1.2,0v1.7c0,2.6,0,2.8,0.3,3c0.2,0.2,0.6,0.3,1.7,0.3c1.6,0,2.6-1,3.1-2.5h0.4
		C642.7,558,642.5,559.6,642.4,560.4z"/>
	<path fill="#004563" d="M653.8,560.3c-0.5,0-1.3,0-1.7,0c-2.3-4.5-1.8-5.6-4-5.6c0,4.7,0,4.8,0.2,5.1c0.2,0.2,0.6,0.3,1.2,0.3v0.3
		c-0.5,0-1.7,0-2.5,0c-0.7,0-1.8,0-2.4,0v-0.3c0.5,0,0.9,0,1.1-0.3c0.2-0.3,0.2-0.4,0.2-5.1s0-4.8-0.2-5c-0.2-0.2-0.6-0.2-1.1-0.3
		v-0.3c0.5,0,1.7,0,2.4,0c0.8,0,2.1-0.1,3-0.1c2.2,0,3.5,1.1,3.5,2.7c0,1.4-1,2.5-3,2.6c1.8,0.3,2.4,2.2,3.2,4
		c0.7,1.3,0.8,1.6,1.6,1.6v0.3C654.8,560.4,654.3,560.3,653.8,560.3z M649.1,549.6c-0.4,0-0.7,0-1,0c0,1,0,2.9,0,4.6
		c0.2,0,0.7,0,1,0c1.4,0,2.1-1,2.1-2.4C651.2,550.3,650.3,549.6,649.1,549.6z"/>
	<path fill="#004563" d="M668.2,560.6c-3.7,0-5.7-2.4-5.7-5.8c0-2.8,2-5.8,5.7-5.8c3.7,0,5.7,2.4,5.7,5.8
		C673.9,558.3,671.4,560.6,668.2,560.6z M668.2,549.5c-1.9,0-3.3,2-3.3,5.3c0,3.8,1.3,5.3,3.2,5.3c2,0,3.4-1.9,3.4-5.3
		C671.5,551.4,670.4,549.5,668.2,549.5z"/>
	<path fill="#004563" d="M683.6,551.9c-0.3-1.6-0.6-2.1-3-2.1c-0.5,0-1,0-1.4,0c0,1,0,3.3,0,4.5c0.3,0,0.4,0,1.1,0
		c1.8,0,1.9-0.3,2.1-1.4h0.4c0,0.9,0,2.7,0,3.6h-0.4c-0.2-1.6-0.5-1.7-2.3-1.7c-0.5,0-0.6,0-0.9,0v1.7c0,2.9,0,3.1,0.2,3.3
		c0.2,0.2,0.7,0.3,1.4,0.3v0.3c-0.5,0-2,0-2.7,0c-0.7,0-1.8,0-2.4,0v-0.3c0.5,0,0.9,0,1.1-0.3c0.2-0.3,0.2-0.4,0.2-5.1s0-4.8-0.2-5
		c-0.2-0.2-0.6-0.2-1.1-0.3v-0.3c0.5,0,1.7,0,2.4,0c0.8,0,5,0,5.7,0c0,0.7,0,2.1,0.1,2.7H683.6z"/>
	<path fill="#004563" d="M699.9,552.1c-0.3-1.9-0.7-2.3-2-2.3c-0.3,0-0.8,0-1.2,0c0,1.2,0,3.7,0,6.8c0,2.9,0,3.1,0.2,3.3
		c0.2,0.2,0.5,0.3,1.3,0.3v0.3c-0.5,0-1.9,0-2.6,0s-2.1,0-2.6,0v-0.3c0.7,0,1.1-0.1,1.3-0.3c0.2-0.2,0.2-0.3,0.2-3.3
		c0-3.1,0-5.5,0-6.8c-0.5,0-1,0-1.2,0c-1.3,0-1.7,0.4-2,2.3h-0.4c0-0.8,0.1-2.2,0-3.1h0.3c0,0.1,0,0.1,0.1,0.2
		c0.2,0.1,0.5,0.1,4.3,0.1c3.8,0,4.1,0,4.3-0.1c0.1,0,0.1-0.1,0.1-0.2h0.3c0,0.9,0,2.3,0,3.1H699.9z"/>
	<path fill="#004563" d="M711.6,560.3c-0.7,0-1.8,0-2.4,0v-0.3c0.5,0,0.9,0,1.1-0.3c0.2-0.3,0.2-0.4,0.2-5.1v-0.1h-5v0.1
		c0,4.7,0,4.8,0.2,5.1c0.2,0.2,0.6,0.2,1.1,0.3v0.3c-0.5,0-1.6,0-2.4,0c-0.7,0-1.8,0-2.4,0v-0.3c0.5,0,0.9,0,1.1-0.3
		c0.2-0.3,0.2-0.4,0.2-5.1s0-4.8-0.2-5c-0.2-0.2-0.6-0.2-1.1-0.3v-0.3c0.5,0,1.7,0,2.4,0c0.7,0,1.8,0,2.4,0v0.3
		c-0.5,0-0.9,0-1.1,0.3c-0.2,0.3-0.2,0.4-0.2,4.3h5c0-4,0-4.1-0.2-4.3c-0.2-0.2-0.6-0.2-1.1-0.3v-0.3c0.5,0,1.7,0,2.4,0
		c0.7,0,1.8,0,2.4,0v0.3c-0.5,0-0.9,0-1.1,0.3c-0.2,0.3-0.2,0.4-0.2,5s0,4.8,0.2,5.1c0.2,0.2,0.6,0.2,1.1,0.3v0.3
		C713.5,560.4,712.3,560.3,711.6,560.3z"/>
	<path fill="#004563" d="M724.3,560.4c-0.4,0-5.2,0-6,0c-0.8,0-2,0-2.5,0v-0.3c0.5,0,0.9,0,1.1-0.3c0.2-0.3,0.2-0.4,0.2-5.1
		s0-4.8-0.2-5c-0.2-0.2-0.6-0.2-1.1-0.3v-0.3c0.5,0,1.7,0,2.5,0c0.8,0,5.2,0,5.9,0c0,0.7,0,2.1,0.1,2.7H724
		c-0.4-1.6-0.9-2.1-2.9-2.1c-0.8,0-1.3,0-1.7,0c0,1,0,3.3,0,4.5c0.3,0,0.7,0,1.4,0c1.7,0,1.9-0.3,2-1.4h0.4c0,0.9,0,2.6,0,3.6h-0.4
		c-0.1-1.5-0.6-1.7-2.3-1.7c-0.7,0-0.9,0-1.2,0v1.7c0,2.6,0,2.8,0.3,3c0.2,0.2,0.6,0.3,1.7,0.3c1.6,0,2.6-1,3.1-2.5h0.4
		C724.6,558,724.4,559.6,724.3,560.4z"/>
	<path fill="#004563" d="M740.6,550.5c-0.5,0.8-1.6,2.7-2.7,4.6v1.4c0,2.9,0,3.1,0.2,3.3c0.2,0.2,0.5,0.3,1.3,0.3v0.3
		c-0.5,0-1.9,0-2.6,0s-2.1,0-2.6,0v-0.3c0.7,0,1.1-0.1,1.3-0.3c0.2-0.2,0.2-0.3,0.2-3.3v-1.2c-1.3-2.3-2.7-4.6-2.8-4.9
		c-0.5-0.8-0.6-0.9-1.4-1v-0.3c0.5,0,1.6,0,2.2,0c0.8,0,2.4,0,3,0v0.3c-1.1,0-1.3,0.2-1.3,0.6c0,0.4,1.1,2.4,2.2,4.4
		c1.4-2.5,2.1-3.8,2.1-4.3c0-0.5-0.3-0.7-1.1-0.7v-0.3c0.4,0,1.4,0,2,0c0.5,0,1.1,0,1.4,0v0.3C741.3,549.5,741.2,549.6,740.6,550.5z
		"/>
	<path fill="#004563" d="M752.1,560.4c-0.4,0-5.2,0-6,0c-0.8,0-2,0-2.5,0v-0.3c0.5,0,0.9,0,1.1-0.3c0.2-0.3,0.2-0.4,0.2-5.1
		s0-4.8-0.2-5c-0.2-0.2-0.6-0.2-1.1-0.3v-0.3c0.5,0,1.7,0,2.5,0c0.8,0,5.2,0,5.9,0c0,0.7,0,2.1,0.1,2.7h-0.4
		c-0.4-1.6-0.9-2.1-2.9-2.1c-0.8,0-1.3,0-1.7,0c0,1,0,3.3,0,4.5c0.3,0,0.7,0,1.4,0c1.7,0,1.9-0.3,2-1.4h0.4c0,0.9,0,2.6,0,3.6h-0.4
		c-0.1-1.5-0.6-1.7-2.3-1.7c-0.7,0-0.9,0-1.2,0v1.7c0,2.6,0,2.8,0.3,3c0.2,0.2,0.6,0.3,1.7,0.3c1.6,0,2.6-1,3.1-2.5h0.4
		C752.4,558,752.2,559.6,752.1,560.4z"/>
	<path fill="#004563" d="M762.9,560.3c-0.8,0-2.1,0-2.7,0v-0.3c0.9,0,1.2-0.2,1.2-0.7c0-0.3-0.3-1.3-0.8-2.6h-3.4
		c-0.5,1.6-0.7,2.4-0.7,2.6c0,0.6,0.5,0.8,1.1,0.8v0.3c-0.3,0-1.1,0-1.8,0c-0.6,0-1.3,0-1.6,0v-0.3c0.8,0,1.2-0.2,1.6-1.2
		c0.7-1.6,2.7-7.1,3.6-9.8h0.9c0.8,2.5,2.7,7.5,3.5,9.8c0.4,1,0.6,1.2,1.4,1.2v0.3C764.7,560.4,763.7,560.3,762.9,560.3z M759,551.8
		c-0.7,1.8-1.2,3.2-1.5,4.3h3C760.1,554.9,759.5,553.3,759,551.8z"/>
	<path fill="#004563" d="M776.2,560.3c-0.5,0-1.3,0-1.7,0c-2.3-4.5-1.8-5.6-4-5.6c0,4.7,0,4.8,0.2,5.1c0.2,0.2,0.6,0.3,1.2,0.3v0.3
		c-0.5,0-1.7,0-2.5,0c-0.7,0-1.8,0-2.4,0v-0.3c0.5,0,0.9,0,1.1-0.3c0.2-0.3,0.2-0.4,0.2-5.1s0-4.8-0.2-5c-0.2-0.2-0.6-0.2-1.1-0.3
		v-0.3c0.5,0,1.7,0,2.4,0c0.8,0,2.1-0.1,3-0.1c2.2,0,3.5,1.1,3.5,2.7c0,1.4-1,2.5-3,2.6c1.8,0.3,2.4,2.2,3.2,4
		c0.7,1.3,0.8,1.6,1.6,1.6v0.3C777.2,560.4,776.6,560.3,776.2,560.3z M771.5,549.6c-0.4,0-0.7,0-1,0c0,1,0,2.9,0,4.6
		c0.2,0,0.7,0,1,0c1.4,0,2.1-1,2.1-2.4C773.5,550.3,772.7,549.6,771.5,549.6z"/>
</g>
</svg>
