<?xml version="1.0" encoding="utf-8"?>
<!-- Generator: Adobe Illustrator 18.1.1, SVG Export Plug-In . SVG Version: 6.00 Build 0)  -->
<svg version="1.1" id="Layer_1" xmlns="http://www.w3.org/2000/svg" xmlns:xlink="http://www.w3.org/1999/xlink" x="0px" y="0px"
	 viewBox="0 0 64 64" enable-background="new 0 0 64 64" xml:space="preserve">
<g>
	<g>
		<g>
			<polygon fill="#F15B46" points="9.5,26.4 9.6,26.4 9.9,26.6 10.1,26.7 10.3,26.8 10.4,26.9 10.6,27 10.8,27.1 10.9,27 10.9,26.9 
				11,26.8 11,26.5 11.1,26.3 11,26.2 11,26.1 11.1,25.8 11.1,25.7 11.1,25.5 11.2,25.4 11.2,25.2 11.2,25.1 11.3,25.1 11.4,25.1 
				11.4,25.4 11.5,25.4 11.5,25.5 11.6,25.7 11.6,25.9 11.7,26.2 11.8,26.1 11.9,26.1 12,26.2 12.1,26.4 12.1,26.6 12.1,26.8 
				12.2,26.9 12.2,27.3 12.3,27.5 12.4,27.6 12.6,27.7 12.7,27.8 12.9,27.9 12.9,28 13,28.2 13.1,28.4 13.2,28.5 13.2,28.4 
				13.3,28.5 13.4,28.9 13.7,29.1 13.8,29.4 13.9,29.3 13.9,29.5 13.9,29.6 13.9,29.7 13.9,30 13.9,30 13.9,30.5 13.9,30.6 
				13.9,30.8 13.8,30.8 13.8,31.1 13.7,31.4 13.6,31.5 13.5,31.6 13.3,31.8 13.3,31.9 13.2,32 13.1,32.2 13,32.5 13,32.7 13,32.8 
				12.9,32.9 12.8,33 12.6,33 12.5,33.1 12.3,33.2 12.1,33.3 11.9,33.2 11.8,33.2 11.8,33 11.8,33.1 11.5,33.3 11.4,33.2 11.3,33.1 
				11,33.1 10.7,32.8 10.7,32.7 10.6,32.5 10.5,32.3 10.4,32.3 10.3,32.3 10.4,32.2 10.4,32 10.3,31.9 10.3,32.2 10.1,32.2 10.1,32 
				10.3,31.7 10.3,31.5 10.2,31.5 10.1,31.6 10.2,31.7 10,31.8 9.9,31.9 9.9,32 9.8,32.1 9.7,32 9.5,31.7 9.5,31.7 9.4,31.6 
				9.3,31.4 9.1,31.4 9,31.4 8.8,31.3 8.7,31.2 8.6,31.2 8.4,31.2 8.2,31.3 8.1,31.4 7.7,31.5 7.5,31.5 7.2,31.7 7.1,31.8 7.1,31.9 
				6.9,32 6.8,32 6.7,32.1 6.6,32 6.4,32.1 6.2,32.2 6.1,32.3 5.9,32.4 5.7,32.5 5.4,32.5 5.3,32.4 5.1,32.3 5.1,32.2 5.1,32.1 
				5.1,31.9 5.1,31.7 4.9,31.4 4.8,31.2 4.8,31 4.6,30.9 4.5,30.7 4.4,30.5 4.3,30.3 4.1,30.1 4.2,30.2 4.2,30 4.3,30.1 4.4,29.9 
				4.2,29.8 4.1,29.7 4.1,29.5 4.1,29.3 4.1,29.2 4.1,29.1 4.1,28.9 4.2,29 4.3,28.9 4.4,28.7 4.5,28.7 4.6,28.5 4.8,28.4 4.9,28.5 
				5.1,28.3 5.2,28.3 5.3,28.2 5.5,28.1 5.6,28 5.8,28 5.9,27.9 5.9,27.7 6.1,27.5 6.1,27.3 6,27.2 6.1,27.1 6.2,27 6.3,27.1 
				6.4,27.3 6.4,27.2 6.4,27 6.4,26.9 6.5,27 6.6,26.9 6.7,26.8 6.6,26.7 6.7,26.6 6.8,26.4 6.9,26.3 7,26.3 7.1,26.3 7.2,26.2 
				7.3,26.1 7.3,26.2 7.4,26.3 7.5,26.3 7.5,26.6 7.6,26.6 7.6,26.4 7.7,26.4 7.8,26.4 7.9,26.4 7.9,26.3 7.8,26.2 7.9,26.1 7.9,26 
				8.1,26 8.1,25.8 8.1,25.7 8.2,25.7 8.3,25.6 8.5,25.6 8.6,25.6 8.7,25.5 8.7,25.4 8.5,25.3 8.8,25.3 8.9,25.4 9,25.4 9.2,25.5 
				9.4,25.5 9.4,25.6 9.6,25.4 9.7,25.5 9.7,25.5 9.8,25.6 9.7,25.8 9.6,25.8 9.6,26 			"/>
			<polygon fill="#F15B46" points="11.7,33.8 11.9,33.8 12,33.8 12.1,33.9 12.3,33.9 12.4,33.8 12.5,33.8 12.5,34.1 12.4,34.3 
				12.4,34.4 12.3,34.4 12.2,34.5 12.2,34.6 12.1,34.6 12,34.5 11.9,34.3 11.8,34.1 11.7,33.9 			"/>
		</g>
	</g>
	<path fill="#004563" d="M59.5,30c-0.4-0.3-1.1-0.4-2-0.4c-3.2,0.2-3.8,2.1-3.9,2.3c-0.5,1.4,0.5,2.7,1.1,3.4
		c0.7,0.9,1.5,1.9,1.7,2.1c-0.3,0.1-0.5,0.1-0.9,0.2c-0.3,0-0.8,0-1.3-0.1c0,0-0.5-0.1-0.8-0.2c-0.6-0.2-0.8-0.4-0.8-0.4
		c-0.4,0.1-0.8,0.3-1.1,0.7c-0.2,0.3-0.5,0.9-0.3,1.2s0.5,0.4,1.2,0.4c1.6,0.1,3.8,0.1,4.4,0.1c0.9,0.1,1.5-0.6,1.6-1
		c0.2-0.5,0-1.1-0.3-1.4c-1.4-1.6-3.3-3.3-2.6-4.8c0.2-0.3,0.6-0.5,1.1-0.5s1,0,1.2,0.1c1.3,0.4,1.7-0.3,1.9-0.8
		C60,30.8,60,30.3,59.5,30z"/>
	<path fill="#004563" d="M49.3,35.6c0,0,0.1,0.2-0.5,0.6c-0.1,0.1-1.2,1-2.1,1c-0.1,0-0.6-0.4,0.8-3.9c0.2-0.5,0.1-0.9-0.1-1.2
		c-0.1-0.1-0.3-0.4-1-0.3c-0.6,0.1-1.1,0.6-1.1,0.7l0,0.5c-0.2,0.2-0.4,0.5-0.6,0.8c-0.6,0.6-4.1,3.3-4.9,3.3
		c-0.5,0,0.3-3.1,0.3-3.1s0.3-0.7,0.3-1.2c0-0.4-0.1-0.7-0.6-1c-0.4-0.3-1.1-0.2-1.1-0.2c0,0.1-0.1,0.4-0.1,0.4
		c-0.6,0.6-6.3,5.5-7.2,5.2c-0.6-0.2-0.5-1,0-2.4c0.5-1.3,5.2-9,5.7-9.9c0.6-0.9,1.5-2,1.3-2.9c-0.1-0.6-1.3-1-2.5-0.7
		c0,0,0,0.8-0.2,1.5c-0.1,0.3-2.2,4-3.8,7c-4,6.1-6.5,6.7-8.3,7.4c0.8-0.6,3.1-4.3,1.5-5.5c-0.9-0.7-3.5-0.4-5,0.4
		c0.2-0.3,0.6-0.9,0.4-1.7c-0.2-0.7-1.6-1-2.4-0.7c0,0.6-0.1,0.9-0.2,1.2c0,0-0.9,2.7-1.5,3.9c-0.3,0.6-3.1,6.8-4.6,9.9
		c-0.7,1.4-1.6,3.3-0.6,3.8c0.8,0.4,1.9,0,2.1-1c0.2-1.3,2.2-6.4,3.1-8.4c1.7-3.8,4.2-5.8,6.8-5.8c0.1,0.2,0.3,1.7-1.2,3.2
		c-1,0.9-2,0.9-1.9,1.9c0,0.6,0.7,0.9,1.5,0.9c3.4-0.2,5.8-1.5,7.5-2.9c-0.2,1.3,0.1,2.2,0.7,2.6c0.3,0.2,0.6,0.3,0.9,0.3
		c2,0,6.2-3.6,7.4-4.5c-0.2,0.4-0.5,1.9-0.3,3.1c0.1,0.8,0.7,1.4,1.5,1.4c2,0,5.2-2.8,5.8-3.3c-0.2,0.9-0.3,2.1,0.3,2.8
		c0.2,0.2,0.5,0.5,1,0.5c1.4,0,2.8-0.9,4-1.5c0.9-0.4,1-1.1,0.4-1.8C50.1,35.5,49.3,35.6,49.3,35.6z"/>
</g>
</svg>
